{
	"bufferViews":[{
		"buffer":0,
		"byteOffset":0,
		"byteLength":56856,
		"target":34963
	},
	{
		"buffer":0,
		"byteOffset":56856,
		"byteLength":327776,
		"target":34962,
		"byteStride":32
	}],
	"accessors":[{
		"bufferView":0,
		"type":"SCALAR",
		"componentType":5123,
		"count":28428,
		"byteOffset":0,
		"min":[0],
		"max":[10242]
	},
	{
		"bufferView":1,
		"type":"VEC3",
		"componentType":5126,
		"count":10243,
		"byteOffset":0,
		"min":[-3.1259779930114748,
		-12.435163497924805,
		-12.435250282287598],
		"max":[6.880735397338867,
		12.435247421264649,
		12.435186386108399]
	},
	{
		"bufferView":1,
		"type":"VEC3",
		"componentType":5126,
		"count":10243,
		"byteOffset":12,
		"min":[-1.0,
		-1.0,
		-0.9999868869781494],
		"max":[1.0,
		1.0,
		1.0]
	},
	{
		"bufferView":1,
		"type":"VEC2",
		"componentType":5126,
		"count":10243,
		"byteOffset":24,
		"min":[-3.365957734757785e-9,
		-7.785149261363422e-12],
		"max":[1.0,
		1.0]
	}],
	"asset":{
		"version":"2.0",
		"generator":"Created using the official Cinema 4D glTF Exporter 1.000x284978"
	},
	"scenes":[{
		"nodes":[0]
	}],
	"nodes":[{
		"name":"6612E/312/384",
		"translation":[0.0,
		28.759586334228517,
		0.0],
		"rotation":[0.0,
		0.0,
		0.0,
		-1.0],
		"scale":[1.0,
		1.0,
		1.0],
		"mesh":0
	}],
	"meshes":[{
		"name":"6612E/312/384",
		"primitives":[{
			"attributes":{
				"POSITION":1,
				"NORMAL":2,
				"TEXCOORD_0":3
			},
			"indices":0
		}]
	}],
	"buffers":[{
		"uri":"data:application/octet-stream;base64,",
		"byteLength":384632
	}]
}